/* XPM */
static char *holes[] = {
/* columns rows colors chars-per-pixel */
"51 51 128 2 ",
"   c black",
".  c #010101",
"X  c #020202",
"o  c gray1",
"O  c #040404",
"+  c gray2",
"@  c #060606",
"#  c #070707",
"$  c gray3",
"%  c #090909",
"&  c gray4",
"*  c #0B0B0B",
"=  c #0C0C0C",
"-  c gray5",
";  c #0E0E0E",
":  c gray6",
">  c #101010",
",  c #111111",
"<  c gray7",
"1  c #131313",
"2  c gray8",
"3  c #151515",
"4  c #161616",
"5  c gray9",
"6  c #181818",
"7  c #191919",
"8  c gray10",
"9  c #1B1B1B",
"0  c gray11",
"q  c #1E1E1E",
"w  c gray12",
"e  c #202020",
"r  c gray13",
"t  c #222222",
"y  c #232323",
"u  c gray14",
"i  c #252525",
"p  c gray15",
"a  c #272727",
"s  c #282828",
"d  c gray16",
"f  c #2A2A2A",
"g  c gray17",
"h  c #2C2C2C",
"j  c #2D2D2D",
"k  c gray18",
"l  c #2F2F2F",
"z  c gray19",
"x  c #313131",
"c  c #323232",
"v  c gray20",
"b  c #343434",
"n  c #353535",
"m  c gray21",
"M  c #373737",
"N  c gray22",
"B  c #393939",
"V  c #3A3A3A",
"C  c gray23",
"Z  c #3C3C3C",
"A  c gray24",
"S  c #3E3E3E",
"D  c #3F3F3F",
"F  c gray25",
"G  c #414141",
"H  c gray26",
"J  c #444444",
"K  c gray27",
"L  c #464646",
"P  c gray28",
"I  c #484848",
"U  c #494949",
"Y  c gray29",
"T  c #4B4B4B",
"R  c gray30",
"E  c #4E4E4E",
"W  c gray31",
"Q  c #505050",
"!  c #515151",
"~  c gray32",
"^  c #535353",
"/  c gray33",
"(  c #555555",
")  c #565656",
"_  c gray34",
"`  c #585858",
"'  c #5A5A5A",
"]  c #5B5B5B",
"[  c gray36",
"{  c #5D5D5D",
"}  c gray37",
"|  c #5F5F5F",
" . c #606060",
".. c gray38",
"X. c #626262",
"o. c gray39",
"O. c #646464",
"+. c #656565",
"@. c gray40",
"#. c #676767",
"$. c #686868",
"%. c DimGray",
"&. c #6A6A6A",
"*. c #6C6C6C",
"=. c #6D6D6D",
"-. c #6F6F6F",
";. c #717171",
":. c #727272",
">. c gray45",
",. c #747474",
"<. c gray46",
"1. c #767676",
"2. c #777777",
"3. c gray47",
"4. c #797979",
"5. c gray48",
"6. c #7B7B7B",
"7. c gray49",
"8. c #7E7E7E",
"9. c #808080",
"0. c gray51",
"q. c #838383",
"w. c gray53",
"e. c #898989",
"r. c #8B8B8B",
"t. c #8D8D8D",
"y. c #8E8E8E",
"u. c gray56",
/* pixels */
"g L @.4.$.V b v v v v v v v b b b v B o.4.$.P j y g K +.4.@.Z n v b v v v v v v v b v V O.3.@.I j e g ",
"<.4.-.~ m v v v b v v v v v v c v v v n E =.3.1.:.<.4.=./ n x v c v v v v v v v v v v c n E *.2.1.>.,.",
";.` V b v v v c v v v v v v v v b c v c c B ) ;.4.;.` C c v v v c c v v v v v v v v v v c b B ) ;.3.;.",
"b v b c v c c v v v v v v v v v v b v v v v b b b v b c v v v v v v b v v v v v v v c b v v v c v b c ",
"b v c b v b v v v v v v v v v v c v v v c n v v c b c b v b v c b v v v v v v v v v b c v b v b v v v ",
"b v c b v v c v v v v v v v v v v v v b b x v b v x n c b c b v b v v v v v v v v v c b v v v c v v v ",
"c v c v n v v b c v v v v v v b v v b c b v v v v v b v v x c v v v v v v v v v c v v b c v v v v b v ",
"v v v v v v b b v b v v v v c v v v v v v c v v v c v v c b b c c b b v v v v v b v b c v v c v b c b ",
"v v v b v v v v v v v v v v v v v v v v v b v v b n v v v v v v v c v v v v v v v c b c b v v v b c b ",
": 6 p c v c b v v b v v b v v v v c b b c k q 1 ; > 5 u c c v b v v v v v v b c v b v v v c v g w 0 0 ",
"    o < s c v b v b v v v b b c c v v z q & .   .     O , s c v v c b v v b c b b c b v c i < $ X     ",
".       o q v c b v v v c v v v v c j ;   .             X X q v v v v v v v b v c b v z 6 o   .       ",
"  .   .     0 b x v v c v b c b c k &       .                 q c v x b v v b c v v x 2         . .   ",
"  .         X a c v v v c v c v c 1 .   .   . .   .   X   .   O a v v v v v c v v v 9     X   .   .   ",
"      .       < c v c b v c v b s X   .   .   . .   .   .       > c v c c v v v v h O   .   .   . .   ",
"    X         X s n b v b v v c 3   .         .       .     .   . g v b x v v v v 7   .         .   . ",
".     .         w v v v v b v z -   .         .     .     . X     q v v v v v b c =                   ",
"                6 v v v b v v h O .                     .         4 c c b c v c j #                   ",
"  .     .     O 6 v c v v c b h % +   .     .                 . . 5 n v v c b v f +                   ",
"          . % > y b v v v c c z 6 , #   .   . .   .     .     % < y c c v v v v l 3 = o     . .     . ",
".     .   + 4 r j v v v v v c v s w :   .                   @ 5 t j v v b v v v c u 0 * .             ",
"        X 1 j n v v v v v v v v c x q #   X .     . .   . . < l b c b c v v b v n l k 0 +   .         ",
"    . . = j K C v v v v v v v v b G C 8 o .   . .       . - k K C v v v b c b v v n D M 3 X           ",
"    o > c ^ ! n v b v v v v v v c S _ P e $ .     . . o > z ~ Q m c v v b v b v v c G ^ Z 4 o         ",
"& 1 s U %...V c v b v v v v c v v b W *.{ B q * $ % 2 p T #.o.C v v v v v v v v b v b ) @.E a > O . . ",
"/ o.,.9.O.A c v v v v v v v v v v v b R >.7.&.] Q / ..,.8.O.Z v v v v v v v v v v b b v ' 5.;.` J V A ",
"t.q.*.U b b c v v v v v v v v v c v v c A ] 3.e.u.y.0.*.Y m c b v b v v v v c v c v v v c L *.w.t.r.r.",
"A N c v v c b v v v v v v v v v c v v c c b n B S A M n b c b c v v v v v v v v v v c n b v c Z T ~ ! ",
"v v c v b v v v v v v v v v v v v v c c v v c b c v v x c v b v v v v v v v v v v c b b v c v c v v v ",
"v v b c c b v v v v v v v v v v v v c v v b b c c c c b v v b v v v v v v v v v v c v v v v v v b c v ",
"v v v v b c v v v v v v v v v v v v v v c v v v v v v v v b v v v v v v v v v v v v v c v c v c v b v ",
"c v b c c v v v v v v v v v v v v v v v v b v v v b b v b v v v v v v v v v v v v c v b x v b v c c v ",
"v c v c v b v v v v v v v v v v v v v v v v v v b v v b v c v v v v v b v b v v v c v c v v v v v v v ",
"v b c v v b c v v v v b b v v v v v v c v v v v v v v v v v v v v c v v c v v v v v c v v v c v v v v ",
"i d c v v v v v v v c v v v v v c b v b c v f u t i d c c b c b v v v c v v c c b c v b x v b x g f g ",
". O ; e c v c b v v c v b v c c b b v c e ; @ X     # ; r z v v v v v v v v b v v b v c b h 4 = # @ # ",
". .     : j c c b b v v c v v b c b l ; X                 > h b v v v v v c c v v v c c 8 o .   .   . ",
".   . .   $ h b c c c v v v v b b k = .           .   X     % h v v v c v b c v v c c 1               ",
"X       .   - x b v c v v b v v x >     .       .           . : z v b b x b b c v v 5   .             ",
"  .   .       e v v v b v v c c y     .       .               . w v v v b v v v b s X .   .           ",
".     .       = x b v b v v v c :   .         .           .     = c v v v v v b c < .   .   .         ",
"  .           o f v v v b c v h O   .           .   .           . g b v v v v v l #                   ",
"            .   u v v v c v b a   .                     . X       y v c v c v c a o         .         ",
".           .   r c c b c v v u       .       .       .   .     . e v b b v b v t .     X             ",
"          X * : s v v c v c b g > = O     . .         .   . X $ : s v c b b v v a ; % .               ",
"      .   $ 7 e l v c v v v v z r 0 &                     . @ 7 e l b v v v v v k q 3 # .     .       ",
"  .     . 2 g z c v c b c v v v z g 2 X .               . . 1 l c v v b v b b v v j s :   .           ",
"        = k F M v v v c v v b b m F l -                 X ; l G M b v v v c v v v m Z a &             ",
".   X - z E T b v b v v v v v v v I Q c > o     .     o ; l Q U n v c v c c b b c b I U s &         . ",
"o - w H  ...N v v v v v v v v v v m { o.K e - O X O * w H X.} B b v v v v c v v v b C | ' m 3 @ X   X ",
"F ^ &.5.$.C v c v v v v v v v v v v B O.6.*.( H C G ~ $.6.#.C v v b v v b v v v v c v G *.:.[ F k f j "
};
